<svg xmlns="http://www.w3.org/2000/svg" width="24" height="24" xmlns:v="https://vecta.io/nano"><path d="M4.96 15.526l2.595-1.274a.7.7 0 0 0 .407-.579l.056-1.032a.66.66 0 0 1 .437-.579c2.097-.779 4.403-.779 6.5 0a.66.66 0 0 1 .437.579l.109 1.032a.7.7 0 0 0 .394.589l2.595 1.274.662.331a.71.71 0 0 0 .308.07.69.69 0 0 0 .467-.179 3 3 0 0 0 .992-2.559l-.03-.235-.016-.122c-.006-.056-.014-.111-.026-.166l-.04-.162c-.55-2.151-4.078-3.843-8.456-4.008h-1.245c-4.372.165-7.9 1.857-8.483 4l-.04.162c-.012.054-.02.11-.026.165l-.017.122-.03.235a3 3 0 0 0 .993 2.558.69.69 0 0 0 .467.179.71.71 0 0 0 .308-.07z" fill="none" stroke="#000" stroke-miterlimit="10" stroke-width="1.5"/></svg>