<svg xmlns="http://www.w3.org/2000/svg" viewBox="0 0 64 64" xmlns:v="https://vecta.io/nano"><path d="M32 40c6.065 0 11-5.065 11-11.292V11.292C43 5.065 38.065 0 32 0S21 5.065 21 11.292v17.416C21 34.935 25.935 40 32 40zm-9-28.708C23 6.168 27.038 2 32 2s9 4.168 9 9.292v17.416C41 33.832 36.962 38 32 38s-9-4.168-9-9.292V11.292zM50 25a1 1 0 0 0-1 1v3.633C49 39.209 41.374 47 32 47s-17-7.791-17-17.367V26a1 1 0 1 0-2 0v3.633c0 10.335 7.989 18.78 18 19.315V62H21a1 1 0 1 0 0 2h22a1 1 0 1 0 0-2H33V48.948c10.011-.535 18-8.98 18-19.315V26a1 1 0 0 0-1-1z"/></svg>