<svg xmlns="http://www.w3.org/2000/svg" viewBox="0 0 478 478" xmlns:v="https://vecta.io/nano"><path d="M394 196.1c0-11.9-9.7-21.6-21.6-21.6s-21.6 9.7-21.6 21.6c0 61.7-50.2 111.8-111.8 111.8s-111.8-50.2-111.8-111.8c0-11.9-9.7-21.6-21.6-21.6S84 184.2 84 196.1c0 78.2 58.1 143 133.4 153.5v85.2h-55.6c-11.9 0-21.6 9.7-21.6 21.6s9.7 21.6 21.6 21.6h154.5c11.9 0 21.6-9.7 21.6-21.6s-9.7-21.6-21.6-21.6h-55.6v-85.2C335.9 339.1 394 274.2 394 196.1zM239 0h0c-46.4 0-84 37.6-84 84v110.7c0 46.4 37.6 84 84 84h0c46.4 0 84-37.6 84-84V84c0-46.4-37.6-84-84-84zm.1 55.9c-15.1 0-27.4 12.3-27.4 27.4v.6h0l-.2 99.9c0 6.9-5.6 12.4-12.4 12.4h0c-6.9 0-12.4-5.6-12.4-12.4V83.3h0v-.1c0-28.9 23.5-52.4 52.4-52.4 6.9 0 12.5 5.6 12.5 12.5 0 7-5.6 12.6-12.5 12.6h0z"/><path d="M419.5 430.6h0c-6.7 6.1-17.1 5.5-23.2-1.2L57.3 53.7c-6.1-6.7-5.5-17.1 1.2-23.2h0c6.7-6.1 17.1-5.5 23.2 1.2l339 375.7c6.1 6.8 5.5 17.2-1.2 23.2z"/></svg>